<mxfile host="app.diagrams.net" modified="2023-04-01T11:45:58.469Z" agent="Mozilla/5.0 (Macintosh; Intel Mac OS X 10_15_7) AppleWebKit/537.36 (KHTML, like Gecko) Chrome/111.0.0.0 Safari/537.36" etag="iijrEk1i_6cRRPnFrrz7" version="21.1.2" type="device">
  <diagram name="Page-1" id="0mzZ0FXUNe1HwxqdRipv">
    <mxGraphModel dx="1026" dy="1131" grid="1" gridSize="10" guides="1" tooltips="1" connect="1" arrows="1" fold="1" page="1" pageScale="1" pageWidth="1169" pageHeight="827" math="0" shadow="0">
      <root>
        <mxCell id="0" />
        <mxCell id="1" parent="0" />
        <mxCell id="A4oa1Aqxcal-LB0vRYpH-1" value="&lt;font style=&quot;&quot;&gt;&lt;span style=&quot;font-size: 18px;&quot;&gt;Content Modelling -&amp;nbsp;ë°© (Bang) South Korea&#39;s Real Estate Champion&lt;/span&gt;&lt;br&gt;&lt;br&gt;&lt;font style=&quot;font-size: 12px;&quot;&gt;Bottom-up approach&lt;/font&gt;&lt;br&gt;&lt;/font&gt;" style="text;html=1;strokeColor=none;fillColor=none;align=left;verticalAlign=middle;whiteSpace=wrap;rounded=0;" vertex="1" parent="1">
          <mxGeometry x="40" y="40" width="620" height="40" as="geometry" />
        </mxCell>
        <mxCell id="A4oa1Aqxcal-LB0vRYpH-38" value="" style="group" vertex="1" connectable="0" parent="1">
          <mxGeometry x="40" y="120" width="280" height="580" as="geometry" />
        </mxCell>
        <mxCell id="A4oa1Aqxcal-LB0vRYpH-2" value="" style="rounded=0;whiteSpace=wrap;html=1;" vertex="1" parent="A4oa1Aqxcal-LB0vRYpH-38">
          <mxGeometry width="280" height="580" as="geometry" />
        </mxCell>
        <mxCell id="A4oa1Aqxcal-LB0vRYpH-3" value="Specification Model: Menu" style="text;html=1;strokeColor=none;fillColor=none;align=left;verticalAlign=middle;whiteSpace=wrap;rounded=0;fontSize=14;fontStyle=1" vertex="1" parent="A4oa1Aqxcal-LB0vRYpH-38">
          <mxGeometry x="10" y="10" width="260" height="30" as="geometry" />
        </mxCell>
        <mxCell id="A4oa1Aqxcal-LB0vRYpH-21" value="Short Text" style="swimlane;fontStyle=0;childLayout=stackLayout;horizontal=1;startSize=26;horizontalStack=0;resizeParent=1;resizeParentMax=0;resizeLast=0;collapsible=1;marginBottom=0;align=center;fontSize=14;" vertex="1" parent="A4oa1Aqxcal-LB0vRYpH-38">
          <mxGeometry x="60" y="50" width="160" height="56" as="geometry" />
        </mxCell>
        <mxCell id="A4oa1Aqxcal-LB0vRYpH-22" value="ID" style="text;strokeColor=none;fillColor=none;spacingLeft=4;spacingRight=4;overflow=hidden;rotatable=0;points=[[0,0.5],[1,0.5]];portConstraint=eastwest;fontSize=12;whiteSpace=wrap;html=1;align=center;" vertex="1" parent="A4oa1Aqxcal-LB0vRYpH-21">
          <mxGeometry y="26" width="160" height="30" as="geometry" />
        </mxCell>
        <mxCell id="A4oa1Aqxcal-LB0vRYpH-25" value="Integer" style="swimlane;fontStyle=0;childLayout=stackLayout;horizontal=1;startSize=26;horizontalStack=0;resizeParent=1;resizeParentMax=0;resizeLast=0;collapsible=1;marginBottom=0;align=center;fontSize=14;" vertex="1" parent="A4oa1Aqxcal-LB0vRYpH-38">
          <mxGeometry x="60" y="126" width="160" height="56" as="geometry" />
        </mxCell>
        <mxCell id="A4oa1Aqxcal-LB0vRYpH-26" value="Order Number" style="text;strokeColor=none;fillColor=none;spacingLeft=4;spacingRight=4;overflow=hidden;rotatable=0;points=[[0,0.5],[1,0.5]];portConstraint=eastwest;fontSize=12;whiteSpace=wrap;html=1;align=center;" vertex="1" parent="A4oa1Aqxcal-LB0vRYpH-25">
          <mxGeometry y="26" width="160" height="30" as="geometry" />
        </mxCell>
        <mxCell id="A4oa1Aqxcal-LB0vRYpH-27" value="Short Text" style="swimlane;fontStyle=0;childLayout=stackLayout;horizontal=1;startSize=26;horizontalStack=0;resizeParent=1;resizeParentMax=0;resizeLast=0;collapsible=1;marginBottom=0;align=center;fontSize=14;" vertex="1" parent="A4oa1Aqxcal-LB0vRYpH-38">
          <mxGeometry x="60" y="200" width="160" height="56" as="geometry" />
        </mxCell>
        <mxCell id="A4oa1Aqxcal-LB0vRYpH-28" value="Display Name" style="text;strokeColor=none;fillColor=none;spacingLeft=4;spacingRight=4;overflow=hidden;rotatable=0;points=[[0,0.5],[1,0.5]];portConstraint=eastwest;fontSize=12;whiteSpace=wrap;html=1;align=center;" vertex="1" parent="A4oa1Aqxcal-LB0vRYpH-27">
          <mxGeometry y="26" width="160" height="30" as="geometry" />
        </mxCell>
        <mxCell id="A4oa1Aqxcal-LB0vRYpH-29" value="Boolean" style="swimlane;fontStyle=0;childLayout=stackLayout;horizontal=1;startSize=26;horizontalStack=0;resizeParent=1;resizeParentMax=0;resizeLast=0;collapsible=1;marginBottom=0;align=center;fontSize=14;" vertex="1" parent="A4oa1Aqxcal-LB0vRYpH-38">
          <mxGeometry x="60" y="270" width="160" height="56" as="geometry" />
        </mxCell>
        <mxCell id="A4oa1Aqxcal-LB0vRYpH-30" value="Display in Header" style="text;strokeColor=none;fillColor=none;spacingLeft=4;spacingRight=4;overflow=hidden;rotatable=0;points=[[0,0.5],[1,0.5]];portConstraint=eastwest;fontSize=12;whiteSpace=wrap;html=1;align=center;" vertex="1" parent="A4oa1Aqxcal-LB0vRYpH-29">
          <mxGeometry y="26" width="160" height="30" as="geometry" />
        </mxCell>
        <mxCell id="A4oa1Aqxcal-LB0vRYpH-31" value="Boolean" style="swimlane;fontStyle=0;childLayout=stackLayout;horizontal=1;startSize=26;horizontalStack=0;resizeParent=1;resizeParentMax=0;resizeLast=0;collapsible=1;marginBottom=0;align=center;fontSize=14;" vertex="1" parent="A4oa1Aqxcal-LB0vRYpH-38">
          <mxGeometry x="60" y="340" width="160" height="56" as="geometry" />
        </mxCell>
        <mxCell id="A4oa1Aqxcal-LB0vRYpH-32" value="Display in Footer" style="text;strokeColor=none;fillColor=none;spacingLeft=4;spacingRight=4;overflow=hidden;rotatable=0;points=[[0,0.5],[1,0.5]];portConstraint=eastwest;fontSize=12;whiteSpace=wrap;html=1;align=center;" vertex="1" parent="A4oa1Aqxcal-LB0vRYpH-31">
          <mxGeometry y="26" width="160" height="30" as="geometry" />
        </mxCell>
        <mxCell id="A4oa1Aqxcal-LB0vRYpH-33" value="Reference" style="swimlane;fontStyle=0;childLayout=stackLayout;horizontal=1;startSize=26;horizontalStack=0;resizeParent=1;resizeParentMax=0;resizeLast=0;collapsible=1;marginBottom=0;align=center;fontSize=14;" vertex="1" parent="A4oa1Aqxcal-LB0vRYpH-38">
          <mxGeometry x="60" y="500" width="160" height="56" as="geometry" />
        </mxCell>
        <mxCell id="A4oa1Aqxcal-LB0vRYpH-34" value="Page" style="text;strokeColor=none;fillColor=none;spacingLeft=4;spacingRight=4;overflow=hidden;rotatable=0;points=[[0,0.5],[1,0.5]];portConstraint=eastwest;fontSize=12;whiteSpace=wrap;html=1;align=center;" vertex="1" parent="A4oa1Aqxcal-LB0vRYpH-33">
          <mxGeometry y="26" width="160" height="30" as="geometry" />
        </mxCell>
        <mxCell id="A4oa1Aqxcal-LB0vRYpH-36" value="Short Text" style="swimlane;fontStyle=0;childLayout=stackLayout;horizontal=1;startSize=26;horizontalStack=0;resizeParent=1;resizeParentMax=0;resizeLast=0;collapsible=1;marginBottom=0;align=center;fontSize=14;" vertex="1" parent="A4oa1Aqxcal-LB0vRYpH-38">
          <mxGeometry x="60" y="420" width="160" height="56" as="geometry" />
        </mxCell>
        <mxCell id="A4oa1Aqxcal-LB0vRYpH-37" value="Category" style="text;strokeColor=none;fillColor=none;spacingLeft=4;spacingRight=4;overflow=hidden;rotatable=0;points=[[0,0.5],[1,0.5]];portConstraint=eastwest;fontSize=12;whiteSpace=wrap;html=1;align=center;" vertex="1" parent="A4oa1Aqxcal-LB0vRYpH-36">
          <mxGeometry y="26" width="160" height="30" as="geometry" />
        </mxCell>
        <mxCell id="A4oa1Aqxcal-LB0vRYpH-99" value="" style="group" vertex="1" connectable="0" parent="1">
          <mxGeometry x="360" y="720" width="280" height="760" as="geometry" />
        </mxCell>
        <mxCell id="A4oa1Aqxcal-LB0vRYpH-68" value="" style="rounded=0;whiteSpace=wrap;html=1;" vertex="1" parent="A4oa1Aqxcal-LB0vRYpH-99">
          <mxGeometry width="280" height="760" as="geometry" />
        </mxCell>
        <mxCell id="A4oa1Aqxcal-LB0vRYpH-69" value="Specification Model: Property" style="text;html=1;strokeColor=none;fillColor=none;align=left;verticalAlign=middle;whiteSpace=wrap;rounded=0;fontSize=14;fontStyle=1" vertex="1" parent="A4oa1Aqxcal-LB0vRYpH-99">
          <mxGeometry x="10" y="10" width="260" height="30" as="geometry" />
        </mxCell>
        <mxCell id="A4oa1Aqxcal-LB0vRYpH-70" value="Short Text" style="swimlane;fontStyle=0;childLayout=stackLayout;horizontal=1;startSize=26;horizontalStack=0;resizeParent=1;resizeParentMax=0;resizeLast=0;collapsible=1;marginBottom=0;align=center;fontSize=14;" vertex="1" parent="A4oa1Aqxcal-LB0vRYpH-99">
          <mxGeometry x="60" y="50" width="160" height="56" as="geometry" />
        </mxCell>
        <mxCell id="A4oa1Aqxcal-LB0vRYpH-71" value="Slug" style="text;strokeColor=none;fillColor=none;spacingLeft=4;spacingRight=4;overflow=hidden;rotatable=0;points=[[0,0.5],[1,0.5]];portConstraint=eastwest;fontSize=12;whiteSpace=wrap;html=1;align=center;" vertex="1" parent="A4oa1Aqxcal-LB0vRYpH-70">
          <mxGeometry y="26" width="160" height="30" as="geometry" />
        </mxCell>
        <mxCell id="A4oa1Aqxcal-LB0vRYpH-72" value="Media" style="swimlane;fontStyle=0;childLayout=stackLayout;horizontal=1;startSize=26;horizontalStack=0;resizeParent=1;resizeParentMax=0;resizeLast=0;collapsible=1;marginBottom=0;align=center;fontSize=14;" vertex="1" parent="A4oa1Aqxcal-LB0vRYpH-99">
          <mxGeometry x="60" y="680" width="160" height="56" as="geometry" />
        </mxCell>
        <mxCell id="A4oa1Aqxcal-LB0vRYpH-73" value="Image" style="text;strokeColor=none;fillColor=none;spacingLeft=4;spacingRight=4;overflow=hidden;rotatable=0;points=[[0,0.5],[1,0.5]];portConstraint=eastwest;fontSize=12;whiteSpace=wrap;html=1;align=center;" vertex="1" parent="A4oa1Aqxcal-LB0vRYpH-72">
          <mxGeometry y="26" width="160" height="30" as="geometry" />
        </mxCell>
        <mxCell id="A4oa1Aqxcal-LB0vRYpH-74" value="Short Text" style="swimlane;fontStyle=0;childLayout=stackLayout;horizontal=1;startSize=26;horizontalStack=0;resizeParent=1;resizeParentMax=0;resizeLast=0;collapsible=1;marginBottom=0;align=center;fontSize=14;" vertex="1" parent="A4oa1Aqxcal-LB0vRYpH-99">
          <mxGeometry x="60" y="190" width="160" height="56" as="geometry" />
        </mxCell>
        <mxCell id="A4oa1Aqxcal-LB0vRYpH-75" value="Title" style="text;strokeColor=none;fillColor=none;spacingLeft=4;spacingRight=4;overflow=hidden;rotatable=0;points=[[0,0.5],[1,0.5]];portConstraint=eastwest;fontSize=12;whiteSpace=wrap;html=1;align=center;" vertex="1" parent="A4oa1Aqxcal-LB0vRYpH-74">
          <mxGeometry y="26" width="160" height="30" as="geometry" />
        </mxCell>
        <mxCell id="A4oa1Aqxcal-LB0vRYpH-82" value="Short Text" style="swimlane;fontStyle=0;childLayout=stackLayout;horizontal=1;startSize=26;horizontalStack=0;resizeParent=1;resizeParentMax=0;resizeLast=0;collapsible=1;marginBottom=0;align=center;fontSize=14;" vertex="1" parent="A4oa1Aqxcal-LB0vRYpH-99">
          <mxGeometry x="60" y="262" width="160" height="56" as="geometry" />
        </mxCell>
        <mxCell id="A4oa1Aqxcal-LB0vRYpH-83" value="Address Line 1&lt;br&gt;" style="text;strokeColor=none;fillColor=none;spacingLeft=4;spacingRight=4;overflow=hidden;rotatable=0;points=[[0,0.5],[1,0.5]];portConstraint=eastwest;fontSize=12;whiteSpace=wrap;html=1;align=center;" vertex="1" parent="A4oa1Aqxcal-LB0vRYpH-82">
          <mxGeometry y="26" width="160" height="30" as="geometry" />
        </mxCell>
        <mxCell id="A4oa1Aqxcal-LB0vRYpH-84" value="Integer" style="swimlane;fontStyle=0;childLayout=stackLayout;horizontal=1;startSize=26;horizontalStack=0;resizeParent=1;resizeParentMax=0;resizeLast=0;collapsible=1;marginBottom=0;align=center;fontSize=14;" vertex="1" parent="A4oa1Aqxcal-LB0vRYpH-99">
          <mxGeometry x="60" y="120" width="160" height="56" as="geometry" />
        </mxCell>
        <mxCell id="A4oa1Aqxcal-LB0vRYpH-85" value="ID" style="text;strokeColor=none;fillColor=none;spacingLeft=4;spacingRight=4;overflow=hidden;rotatable=0;points=[[0,0.5],[1,0.5]];portConstraint=eastwest;fontSize=12;whiteSpace=wrap;html=1;align=center;" vertex="1" parent="A4oa1Aqxcal-LB0vRYpH-84">
          <mxGeometry y="26" width="160" height="30" as="geometry" />
        </mxCell>
        <mxCell id="A4oa1Aqxcal-LB0vRYpH-86" value="Short Text" style="swimlane;fontStyle=0;childLayout=stackLayout;horizontal=1;startSize=26;horizontalStack=0;resizeParent=1;resizeParentMax=0;resizeLast=0;collapsible=1;marginBottom=0;align=center;fontSize=14;" vertex="1" parent="A4oa1Aqxcal-LB0vRYpH-99">
          <mxGeometry x="60" y="330" width="160" height="56" as="geometry" />
        </mxCell>
        <mxCell id="A4oa1Aqxcal-LB0vRYpH-87" value="Address Line 2" style="text;strokeColor=none;fillColor=none;spacingLeft=4;spacingRight=4;overflow=hidden;rotatable=0;points=[[0,0.5],[1,0.5]];portConstraint=eastwest;fontSize=12;whiteSpace=wrap;html=1;align=center;" vertex="1" parent="A4oa1Aqxcal-LB0vRYpH-86">
          <mxGeometry y="26" width="160" height="30" as="geometry" />
        </mxCell>
        <mxCell id="A4oa1Aqxcal-LB0vRYpH-88" value="Short Text" style="swimlane;fontStyle=0;childLayout=stackLayout;horizontal=1;startSize=26;horizontalStack=0;resizeParent=1;resizeParentMax=0;resizeLast=0;collapsible=1;marginBottom=0;align=center;fontSize=14;" vertex="1" parent="A4oa1Aqxcal-LB0vRYpH-99">
          <mxGeometry x="60" y="400" width="160" height="56" as="geometry" />
        </mxCell>
        <mxCell id="A4oa1Aqxcal-LB0vRYpH-89" value="City" style="text;strokeColor=none;fillColor=none;spacingLeft=4;spacingRight=4;overflow=hidden;rotatable=0;points=[[0,0.5],[1,0.5]];portConstraint=eastwest;fontSize=12;whiteSpace=wrap;html=1;align=center;" vertex="1" parent="A4oa1Aqxcal-LB0vRYpH-88">
          <mxGeometry y="26" width="160" height="30" as="geometry" />
        </mxCell>
        <mxCell id="A4oa1Aqxcal-LB0vRYpH-90" value="Short Text" style="swimlane;fontStyle=0;childLayout=stackLayout;horizontal=1;startSize=26;horizontalStack=0;resizeParent=1;resizeParentMax=0;resizeLast=0;collapsible=1;marginBottom=0;align=center;fontSize=14;" vertex="1" parent="A4oa1Aqxcal-LB0vRYpH-99">
          <mxGeometry x="60" y="470" width="160" height="56" as="geometry" />
        </mxCell>
        <mxCell id="A4oa1Aqxcal-LB0vRYpH-91" value="Province" style="text;strokeColor=none;fillColor=none;spacingLeft=4;spacingRight=4;overflow=hidden;rotatable=0;points=[[0,0.5],[1,0.5]];portConstraint=eastwest;fontSize=12;whiteSpace=wrap;html=1;align=center;" vertex="1" parent="A4oa1Aqxcal-LB0vRYpH-90">
          <mxGeometry y="26" width="160" height="30" as="geometry" />
        </mxCell>
        <mxCell id="A4oa1Aqxcal-LB0vRYpH-94" value="Integer" style="swimlane;fontStyle=0;childLayout=stackLayout;horizontal=1;startSize=26;horizontalStack=0;resizeParent=1;resizeParentMax=0;resizeLast=0;collapsible=1;marginBottom=0;align=center;fontSize=14;" vertex="1" parent="A4oa1Aqxcal-LB0vRYpH-99">
          <mxGeometry x="60" y="540" width="160" height="56" as="geometry" />
        </mxCell>
        <mxCell id="A4oa1Aqxcal-LB0vRYpH-95" value="Postcode" style="text;strokeColor=none;fillColor=none;spacingLeft=4;spacingRight=4;overflow=hidden;rotatable=0;points=[[0,0.5],[1,0.5]];portConstraint=eastwest;fontSize=12;whiteSpace=wrap;html=1;align=center;" vertex="1" parent="A4oa1Aqxcal-LB0vRYpH-94">
          <mxGeometry y="26" width="160" height="30" as="geometry" />
        </mxCell>
        <mxCell id="A4oa1Aqxcal-LB0vRYpH-96" value="Short Text" style="swimlane;fontStyle=0;childLayout=stackLayout;horizontal=1;startSize=26;horizontalStack=0;resizeParent=1;resizeParentMax=0;resizeLast=0;collapsible=1;marginBottom=0;align=center;fontSize=14;" vertex="1" parent="A4oa1Aqxcal-LB0vRYpH-99">
          <mxGeometry x="60" y="610" width="160" height="56" as="geometry" />
        </mxCell>
        <mxCell id="A4oa1Aqxcal-LB0vRYpH-97" value="Category" style="text;strokeColor=none;fillColor=none;spacingLeft=4;spacingRight=4;overflow=hidden;rotatable=0;points=[[0,0.5],[1,0.5]];portConstraint=eastwest;fontSize=12;whiteSpace=wrap;html=1;align=center;" vertex="1" parent="A4oa1Aqxcal-LB0vRYpH-96">
          <mxGeometry y="26" width="160" height="30" as="geometry" />
        </mxCell>
        <mxCell id="A4oa1Aqxcal-LB0vRYpH-115" value="" style="group" vertex="1" connectable="0" parent="1">
          <mxGeometry x="40" y="720" width="280" height="270" as="geometry" />
        </mxCell>
        <mxCell id="A4oa1Aqxcal-LB0vRYpH-101" value="" style="rounded=0;whiteSpace=wrap;html=1;" vertex="1" parent="A4oa1Aqxcal-LB0vRYpH-115">
          <mxGeometry width="280" height="270" as="geometry" />
        </mxCell>
        <mxCell id="A4oa1Aqxcal-LB0vRYpH-102" value="Specification Model: Social Media" style="text;html=1;strokeColor=none;fillColor=none;align=left;verticalAlign=middle;whiteSpace=wrap;rounded=0;fontSize=14;fontStyle=1" vertex="1" parent="A4oa1Aqxcal-LB0vRYpH-115">
          <mxGeometry x="10" y="10" width="260" height="30" as="geometry" />
        </mxCell>
        <mxCell id="A4oa1Aqxcal-LB0vRYpH-103" value="Short Text" style="swimlane;fontStyle=0;childLayout=stackLayout;horizontal=1;startSize=26;horizontalStack=0;resizeParent=1;resizeParentMax=0;resizeLast=0;collapsible=1;marginBottom=0;align=center;fontSize=14;" vertex="1" parent="A4oa1Aqxcal-LB0vRYpH-115">
          <mxGeometry x="60" y="50" width="160" height="56" as="geometry" />
        </mxCell>
        <mxCell id="A4oa1Aqxcal-LB0vRYpH-104" value="ID" style="text;strokeColor=none;fillColor=none;spacingLeft=4;spacingRight=4;overflow=hidden;rotatable=0;points=[[0,0.5],[1,0.5]];portConstraint=eastwest;fontSize=12;whiteSpace=wrap;html=1;align=center;" vertex="1" parent="A4oa1Aqxcal-LB0vRYpH-103">
          <mxGeometry y="26" width="160" height="30" as="geometry" />
        </mxCell>
        <mxCell id="A4oa1Aqxcal-LB0vRYpH-107" value="Short Text" style="swimlane;fontStyle=0;childLayout=stackLayout;horizontal=1;startSize=26;horizontalStack=0;resizeParent=1;resizeParentMax=0;resizeLast=0;collapsible=1;marginBottom=0;align=center;fontSize=14;" vertex="1" parent="A4oa1Aqxcal-LB0vRYpH-115">
          <mxGeometry x="60" y="190" width="160" height="56" as="geometry" />
        </mxCell>
        <mxCell id="A4oa1Aqxcal-LB0vRYpH-108" value="URL" style="text;strokeColor=none;fillColor=none;spacingLeft=4;spacingRight=4;overflow=hidden;rotatable=0;points=[[0,0.5],[1,0.5]];portConstraint=eastwest;fontSize=12;whiteSpace=wrap;html=1;align=center;" vertex="1" parent="A4oa1Aqxcal-LB0vRYpH-107">
          <mxGeometry y="26" width="160" height="30" as="geometry" />
        </mxCell>
        <mxCell id="A4oa1Aqxcal-LB0vRYpH-113" value="Short Text" style="swimlane;fontStyle=0;childLayout=stackLayout;horizontal=1;startSize=26;horizontalStack=0;resizeParent=1;resizeParentMax=0;resizeLast=0;collapsible=1;marginBottom=0;align=center;fontSize=14;" vertex="1" parent="A4oa1Aqxcal-LB0vRYpH-115">
          <mxGeometry x="60" y="120" width="160" height="56" as="geometry" />
        </mxCell>
        <mxCell id="A4oa1Aqxcal-LB0vRYpH-114" value="Display Name" style="text;strokeColor=none;fillColor=none;spacingLeft=4;spacingRight=4;overflow=hidden;rotatable=0;points=[[0,0.5],[1,0.5]];portConstraint=eastwest;fontSize=12;whiteSpace=wrap;html=1;align=center;" vertex="1" parent="A4oa1Aqxcal-LB0vRYpH-113">
          <mxGeometry y="26" width="160" height="30" as="geometry" />
        </mxCell>
        <mxCell id="A4oa1Aqxcal-LB0vRYpH-39" value="" style="rounded=0;whiteSpace=wrap;html=1;" vertex="1" parent="1">
          <mxGeometry x="360" y="120" width="280" height="490" as="geometry" />
        </mxCell>
        <mxCell id="A4oa1Aqxcal-LB0vRYpH-40" value="Specification Model: Page" style="text;html=1;strokeColor=none;fillColor=none;align=left;verticalAlign=middle;whiteSpace=wrap;rounded=0;fontSize=14;fontStyle=1" vertex="1" parent="1">
          <mxGeometry x="370" y="130" width="260" height="30" as="geometry" />
        </mxCell>
        <mxCell id="A4oa1Aqxcal-LB0vRYpH-41" value="Short Text" style="swimlane;fontStyle=0;childLayout=stackLayout;horizontal=1;startSize=26;horizontalStack=0;resizeParent=1;resizeParentMax=0;resizeLast=0;collapsible=1;marginBottom=0;align=center;fontSize=14;" vertex="1" parent="1">
          <mxGeometry x="420" y="170" width="160" height="56" as="geometry" />
        </mxCell>
        <mxCell id="A4oa1Aqxcal-LB0vRYpH-42" value="Slug" style="text;strokeColor=none;fillColor=none;spacingLeft=4;spacingRight=4;overflow=hidden;rotatable=0;points=[[0,0.5],[1,0.5]];portConstraint=eastwest;fontSize=12;whiteSpace=wrap;html=1;align=center;" vertex="1" parent="A4oa1Aqxcal-LB0vRYpH-41">
          <mxGeometry y="26" width="160" height="30" as="geometry" />
        </mxCell>
        <mxCell id="A4oa1Aqxcal-LB0vRYpH-43" value="Short Text" style="swimlane;fontStyle=0;childLayout=stackLayout;horizontal=1;startSize=26;horizontalStack=0;resizeParent=1;resizeParentMax=0;resizeLast=0;collapsible=1;marginBottom=0;align=center;fontSize=14;" vertex="1" parent="1">
          <mxGeometry x="420" y="240" width="160" height="56" as="geometry" />
        </mxCell>
        <mxCell id="A4oa1Aqxcal-LB0vRYpH-44" value="Title" style="text;strokeColor=none;fillColor=none;spacingLeft=4;spacingRight=4;overflow=hidden;rotatable=0;points=[[0,0.5],[1,0.5]];portConstraint=eastwest;fontSize=12;whiteSpace=wrap;html=1;align=center;" vertex="1" parent="A4oa1Aqxcal-LB0vRYpH-43">
          <mxGeometry y="26" width="160" height="30" as="geometry" />
        </mxCell>
        <mxCell id="A4oa1Aqxcal-LB0vRYpH-45" value="Short Text" style="swimlane;fontStyle=0;childLayout=stackLayout;horizontal=1;startSize=26;horizontalStack=0;resizeParent=1;resizeParentMax=0;resizeLast=0;collapsible=1;marginBottom=0;align=center;fontSize=14;" vertex="1" parent="1">
          <mxGeometry x="420" y="310" width="160" height="56" as="geometry" />
        </mxCell>
        <mxCell id="A4oa1Aqxcal-LB0vRYpH-46" value="Subtitle" style="text;strokeColor=none;fillColor=none;spacingLeft=4;spacingRight=4;overflow=hidden;rotatable=0;points=[[0,0.5],[1,0.5]];portConstraint=eastwest;fontSize=12;whiteSpace=wrap;html=1;align=center;" vertex="1" parent="A4oa1Aqxcal-LB0vRYpH-45">
          <mxGeometry y="26" width="160" height="30" as="geometry" />
        </mxCell>
        <mxCell id="A4oa1Aqxcal-LB0vRYpH-47" value="Short Text" style="swimlane;fontStyle=0;childLayout=stackLayout;horizontal=1;startSize=26;horizontalStack=0;resizeParent=1;resizeParentMax=0;resizeLast=0;collapsible=1;marginBottom=0;align=center;fontSize=14;" vertex="1" parent="1">
          <mxGeometry x="420" y="382" width="160" height="56" as="geometry" />
        </mxCell>
        <mxCell id="A4oa1Aqxcal-LB0vRYpH-48" value="SEO Title" style="text;strokeColor=none;fillColor=none;spacingLeft=4;spacingRight=4;overflow=hidden;rotatable=0;points=[[0,0.5],[1,0.5]];portConstraint=eastwest;fontSize=12;whiteSpace=wrap;html=1;align=center;" vertex="1" parent="A4oa1Aqxcal-LB0vRYpH-47">
          <mxGeometry y="26" width="160" height="30" as="geometry" />
        </mxCell>
        <mxCell id="A4oa1Aqxcal-LB0vRYpH-49" value="Short Text" style="swimlane;fontStyle=0;childLayout=stackLayout;horizontal=1;startSize=26;horizontalStack=0;resizeParent=1;resizeParentMax=0;resizeLast=0;collapsible=1;marginBottom=0;align=center;fontSize=14;" vertex="1" parent="1">
          <mxGeometry x="420" y="460" width="160" height="56" as="geometry" />
        </mxCell>
        <mxCell id="A4oa1Aqxcal-LB0vRYpH-50" value="SEO Description" style="text;strokeColor=none;fillColor=none;spacingLeft=4;spacingRight=4;overflow=hidden;rotatable=0;points=[[0,0.5],[1,0.5]];portConstraint=eastwest;fontSize=12;whiteSpace=wrap;html=1;align=center;" vertex="1" parent="A4oa1Aqxcal-LB0vRYpH-49">
          <mxGeometry y="26" width="160" height="30" as="geometry" />
        </mxCell>
        <mxCell id="A4oa1Aqxcal-LB0vRYpH-134" value="Reference" style="swimlane;fontStyle=0;childLayout=stackLayout;horizontal=1;startSize=26;horizontalStack=0;resizeParent=1;resizeParentMax=0;resizeLast=0;collapsible=1;marginBottom=0;align=center;fontSize=14;" vertex="1" parent="1">
          <mxGeometry x="420" y="530" width="160" height="56" as="geometry" />
        </mxCell>
        <mxCell id="A4oa1Aqxcal-LB0vRYpH-135" value="Menu" style="text;strokeColor=none;fillColor=none;spacingLeft=4;spacingRight=4;overflow=hidden;rotatable=0;points=[[0,0.5],[1,0.5]];portConstraint=eastwest;fontSize=12;whiteSpace=wrap;html=1;align=center;" vertex="1" parent="A4oa1Aqxcal-LB0vRYpH-134">
          <mxGeometry y="26" width="160" height="30" as="geometry" />
        </mxCell>
        <mxCell id="A4oa1Aqxcal-LB0vRYpH-136" style="edgeStyle=orthogonalEdgeStyle;orthogonalLoop=1;jettySize=auto;html=1;strokeColor=default;curved=1;strokeWidth=2;" edge="1" parent="1" source="A4oa1Aqxcal-LB0vRYpH-34" target="A4oa1Aqxcal-LB0vRYpH-135">
          <mxGeometry relative="1" as="geometry" />
        </mxCell>
      </root>
    </mxGraphModel>
  </diagram>
</mxfile>
